# xmcd CD database file
#
# Track frame offsets:
#	150
#	17353
#	39412
#	51408
#	67892
#	87682
#	102060
#	117974
#	139181
#	155981
#	173676
#
# Disc length: 2554 seconds
#
# Revision: 1
# Processed by: cddbd v1.5.2PL0 Copyright (c) Steve Scherf et al.
# Submitted via: CDex 1.70beta2
#
DISCID=8f09f80b
DTITLE=Ensemble Planeta - Choral
DYEAR=2005
DGENRE=JPop
TTITLE0=Vocalise Op.34 No.14 
TTITLE1=A Time For Us -Love Theme From "Romeo and Juliet"- 
TTITLE2=Nina 
TTITLE3=Home, Sweet Home (Traditional) 
TTITLE4=Adagio 
TTITLE5=Suo Gan (Traditional) 
TTITLE6=Walzer -Donauwellen- 
TTITLE7=Tannhauser 
TTITLE8=Konzert Fur Violine Und Orchester Op.64 
TTITLE9=All Through The Night (Traditional) 
TTITLE10=Pensee 
EXTD=YEAR: 2005
EXTT0=
EXTT1=
EXTT2=
EXTT3=
EXTT4=
EXTT5=
EXTT6=
EXTT7=
EXTT8=
EXTT9=
EXTT10=
PLAYORDER=
